# 3ds Max Wavefront OBJ Exporter v0.97b - (c)2007 guruware
# File Created: 18.01.2015 10:34:03

mtllib wall_arch.mtl

#
# object Plane006
#

v  -0.5000 2.0000 -0.7500
v  -0.5000 0.0000 -0.7500
v  0.5000 2.0000 -0.7500
v  0.5000 0.0000 -0.7500
# 4 vertices

vn 0.0000 -0.0000 1.0000
# 1 vertex normals

vt 0.0000 1.0000 0.0000
vt 0.0000 0.0000 0.0000
vt 1.0000 1.0000 0.0000
vt 1.0000 0.0000 0.0000
# 4 texture coords

g Plane006
usemtl wall_0
f 1/1/1 2/2/1 3/3/1 
f 4/4/1 3/3/1 2/2/1 
# 2 faces

#
# object Box001
#

v  -0.5000 2.0000 -0.5000
v  -0.5000 0.0000 -0.5000
v  -0.3750 0.0000 -0.5000
v  -0.3750 1.2500 -0.5000
v  -0.3750 1.2500 -0.7500
v  -0.3750 0.0000 -0.7500
v  0.3750 1.2500 -0.7500
v  0.3750 0.0000 -0.7500
v  0.3750 0.0000 -0.5000
v  0.3750 1.2500 -0.5000
v  0.5000 0.0000 -0.5000
v  0.5000 2.0000 -0.5000
v  -0.3465 1.3935 -0.5000
v  -0.3465 1.3935 -0.7500
v  0.3465 1.3935 -0.7500
v  0.3465 1.3935 -0.5000
v  0.2652 1.5152 -0.5000
v  0.2652 1.5152 -0.7500
v  0.1435 1.5965 -0.7500
v  0.1435 1.5965 -0.5000
v  -0.0000 1.6250 -0.5000
v  -0.0000 1.6250 -0.7500
v  -0.1435 1.5965 -0.7500
v  -0.1435 1.5965 -0.5000
v  -0.2652 1.5152 -0.5000
v  -0.2652 1.5152 -0.7500
# 26 vertices

vn 0.0000 -0.0000 1.0000
vn -0.0000 -0.0000 1.0000
vn 1.0000 0.0000 -0.0000
vn -1.0000 0.0000 -0.0000
vn 0.9239 -0.3827 -0.0000
vn 0.9808 -0.1951 -0.0000
vn -0.9239 -0.3827 -0.0000
vn -0.7071 -0.7071 -0.0000
vn -0.9808 -0.1951 -0.0000
vn -0.3827 -0.9239 -0.0000
vn 0.0000 -1.0000 -0.0000
vn 0.3827 -0.9239 -0.0000
vn 0.7071 -0.7071 -0.0000
# 13 vertex normals

vt 0.0000 1.0000 0.0000
vt 0.0000 0.0000 0.0000
vt 0.1250 0.0000 0.0000
vt 0.1250 0.6250 0.0000
vt 0.3750 0.6250 0.0000
vt 0.3750 0.0000 0.0000
vt 0.6250 0.6250 0.0000
vt 0.6224 0.0000 0.0000
vt 0.8724 0.0000 0.0000
vt 0.8724 0.6250 0.0000
vt 0.8750 0.0000 0.0000
vt 1.0000 0.0000 0.0000
vt 1.0000 1.0000 0.0000
vt 0.8750 0.6250 0.0000
vt 0.1535 0.6968 0.0000
vt 0.3750 0.9000 1.0000
vt 0.1250 0.9000 1.0000
vt 0.1250 1.0000 1.0000
vt 0.3750 1.0000 1.0000
vt 0.6250 0.7000 1.0000
vt 0.8750 0.7000 1.0000
vt 0.8750 0.8000 1.0000
vt 0.6250 0.8000 1.0000
vt 0.6250 0.6250 1.0000
vt 0.8750 0.6250 1.0000
vt 0.6250 0.9000 1.0000
vt 0.8750 0.9000 1.0000
vt 0.8750 1.0000 1.0000
vt 0.6250 1.0000 1.0000
vt 0.3750 0.7000 1.0000
vt 0.1250 0.7000 1.0000
vt 0.1250 0.8000 1.0000
vt 0.3750 0.8000 1.0000
vt 0.3750 0.6250 1.0000
vt 0.1250 0.6250 1.0000
vt 0.6435 0.7982 0.0000
vt 0.7652 0.7580 0.0000
vt 0.2348 0.7576 0.0000
vt 0.3565 0.7982 0.0000
vt 0.5000 0.8125 0.0000
vt 0.8465 0.6970 0.0000
# 41 texture coords

g Box001
usemtl wall_1
f 5/5/2 6/6/2 7/7/2 
f 7/7/2 8/8/3 5/5/2 
f 9/9/4 8/8/4 7/7/4 
f 7/7/4 10/10/4 9/9/4 
f 11/11/5 12/12/5 13/13/5 
f 13/13/5 14/14/5 11/11/5 
f 13/15/2 15/16/2 16/17/2 
f 16/17/2 14/18/2 13/15/2 
f 5/5/2 8/8/3 17/19/2 
f 18/20/6 17/21/6 8/22/7 
f 8/22/7 9/23/7 18/20/6 
f 19/24/8 20/25/8 21/26/9 
f 21/26/9 22/27/9 19/24/8 
f 11/28/10 14/29/10 20/25/8 
f 20/25/8 19/24/8 11/28/10 
f 23/30/11 24/31/11 25/32/12 
f 25/32/12 26/33/12 23/30/11 
f 22/27/9 21/26/9 24/31/11 
f 24/31/11 23/30/11 22/27/9 
f 27/34/13 28/35/13 29/36/14 
f 29/36/14 30/37/14 27/34/13 
f 26/38/12 25/39/12 28/35/13 
f 28/35/13 27/34/13 26/38/12 
f 30/37/14 29/36/14 17/21/6 
f 17/21/6 18/20/6 30/37/14 
f 24/40/2 21/41/2 16/17/2 
f 17/19/2 29/42/2 5/5/2 
f 29/42/2 28/43/2 5/5/2 
f 28/43/2 25/44/2 5/5/2 
f 24/40/2 16/17/2 5/5/2 
f 5/5/2 25/44/2 24/40/2 
f 21/41/2 20/45/2 16/17/2 
f 20/45/2 14/18/2 16/17/2 
# 33 faces

#
# object Plane007
#

v  -0.5000 0.0000 -0.7505
v  -0.5000 0.0000 -0.5005
v  0.5000 0.0000 -0.7505
v  0.5000 0.0000 -0.5005
# 4 vertices

vn 0.0000 1.0000 -0.0000
# 1 vertex normals

vt 0.0000 0.2500 0.0000
vt 0.0000 0.0000 0.0000
vt 1.0000 0.2500 0.0000
vt 1.0000 0.0000 0.0000
# 4 texture coords

g Plane007
usemtl floor_0
f 31/46/15 32/47/15 33/48/15 
f 34/49/15 33/48/15 32/47/15 
# 2 faces

