# 3ds Max Wavefront OBJ Exporter v0.97b - (c)2007 guruware
# File Created: 18.01.2015 10:35:52

mtllib wall.mtl

#
# object Plane008
#

v  -0.5000 2.0000 -0.5000
v  -0.5000 0.0000 -0.5000
v  0.5000 2.0000 -0.5000
v  0.5000 0.0000 -0.5000
# 4 vertices

vn 0.0000 -0.0000 1.0000
# 1 vertex normals

vt 0.0000 1.0000 0.0000
vt 0.0000 0.0000 0.0000
vt 1.0000 1.0000 0.0000
vt 1.0000 0.0000 0.0000
# 4 texture coords

g Plane008
usemtl wall_0
f 1/1/1 2/2/1 3/3/1 
f 4/4/1 3/3/1 2/2/1 
# 2 faces

