# 3ds Max Wavefront OBJ Exporter v0.97b - (c)2007 guruware
# File Created: 18.01.2015 13:45:44

mtllib wall_pilar.mtl

#
# object Plane008
#

v  -0.5000 2.0000 -0.5000
v  -0.5000 0.0000 -0.5000
v  0.5000 2.0000 -0.5000
v  0.5000 0.0000 -0.5000
# 4 vertices

vn 0.0000 -0.0000 1.0000
# 1 vertex normals

vt 0.0000 1.0000 0.0000
vt 0.0000 0.0000 0.0000
vt 1.0000 1.0000 0.0000
vt 1.0000 0.0000 0.0000
# 4 texture coords

g Plane008
usemtl wall_0
f 1/1/1 2/2/1 3/3/1 
f 4/4/1 3/3/1 2/2/1 
# 2 faces

#
# object Cylinder001
#

v  0.1250 -0.0000 -0.0000
v  0.0884 2.0000 -0.0884
v  0.1250 2.0000 -0.0000
v  0.0884 -0.0000 -0.0884
v  -0.0000 2.0000 -0.1250
v  -0.0000 -0.0000 -0.1250
v  -0.0884 2.0000 -0.0884
v  -0.0884 -0.0000 -0.0884
v  -0.1250 2.0000 0.0000
v  -0.1250 -0.0000 0.0000
v  -0.0884 2.0000 0.0884
v  -0.0884 -0.0000 0.0884
v  0.0000 2.0000 0.1250
v  0.0000 -0.0000 0.1250
v  0.0884 2.0000 0.0884
v  0.0884 -0.0000 0.0884
# 16 vertices

vn 1.0000 0.0000 0.0000
vn 0.7071 0.0000 -0.7071
vn 1.0000 0.0000 -0.0000
vn -0.0000 0.0000 -1.0000
vn -0.7071 0.0000 -0.7071
vn -1.0000 0.0000 0.0000
vn -0.7071 0.0000 0.7071
vn 0.0000 0.0000 1.0000
vn -0.0000 0.0000 1.0000
vn 0.7071 0.0000 0.7071
# 10 vertex normals

vt 0.7500 0.0000 1.0000
vt 0.8750 1.0000 1.0000
vt 0.7500 1.0000 1.0000
vt 0.8750 0.0000 1.0000
vt -0.1250 0.0000 1.0000
vt 0.0000 1.0000 1.0000
vt -0.1250 1.0000 1.0000
vt 0.0000 0.0000 1.0000
vt 0.1250 1.0000 1.0000
vt 0.1250 0.0000 1.0000
vt 0.2500 1.0000 1.0000
vt 0.2500 0.0000 1.0000
vt 0.3750 1.0000 1.0000
vt 0.3750 0.0000 1.0000
vt 0.5000 1.0000 1.0000
vt 0.5000 0.0000 1.0000
vt 0.6250 1.0000 1.0000
vt 0.6250 0.0000 1.0000
# 18 texture coords

g Cylinder001
usemtl column
f 5/5/2 6/6/3 7/7/4 
f 5/5/2 8/8/3 6/6/3 
f 8/9/3 9/10/5 6/11/3 
f 8/9/3 10/12/5 9/10/5 
f 10/12/5 11/13/6 9/10/5 
f 10/12/5 12/14/6 11/13/6 
f 12/14/6 13/15/7 11/13/6 
f 12/14/6 14/16/7 13/15/7 
f 14/16/7 15/17/8 13/15/7 
f 14/16/7 16/18/8 15/17/8 
f 16/18/8 17/19/9 15/17/8 
f 16/18/8 18/20/10 17/19/9 
f 18/20/10 19/21/11 17/19/9 
f 18/20/10 20/22/11 19/21/11 
f 20/22/11 7/7/4 19/21/11 
f 20/22/11 5/5/2 7/7/4 
# 16 faces

#
# object Box004
#

v  -0.3125 1.9370 0.3125
v  -0.3125 1.9370 -0.3125
v  0.3125 1.9370 -0.3125
v  0.3125 1.9370 0.3125
v  0.3125 1.9995 0.3125
v  -0.3125 1.9995 0.3125
v  0.3125 1.9995 -0.3125
v  -0.3125 1.9995 -0.3125
# 8 vertices

vn 0.0000 -1.0000 -0.0000
vn 0.0000 0.0000 1.0000
vn 1.0000 0.0000 -0.0000
vn 0.0000 0.0000 -1.0000
vn -1.0000 0.0000 -0.0000
# 5 vertex normals

vt 1.0000 0.0000 0.0000
vt 1.0000 1.0000 0.0000
vt 0.0000 1.0000 0.0000
vt 0.0000 0.0000 0.0000
# 4 texture coords

g Box004
usemtl column_base
f 21/23/12 22/24/12 23/25/12 
f 23/25/12 24/26/12 21/23/12 
f 21/26/13 24/23/13 25/24/13 
f 25/24/13 26/25/13 21/26/13 
f 24/26/14 23/23/14 27/24/14 
f 27/24/14 25/25/14 24/26/14 
f 23/26/15 22/23/15 28/24/15 
f 28/24/15 27/25/15 23/26/15 
f 22/26/16 21/23/16 26/24/16 
f 26/24/16 28/25/16 22/26/16 
# 10 faces

#
# object Torus002
#

v  -0.0000 1.7500 -0.1250
v  -0.0000 1.7866 -0.2134
v  0.1509 1.7866 -0.1509
v  0.0884 1.7500 -0.0884
v  0.0000 1.8750 -0.2500
v  0.1768 1.8750 -0.1768
v  0.2134 1.7866 -0.0000
v  0.1250 1.7500 -0.0000
v  0.2500 1.8750 0.0000
v  0.1509 1.7866 0.1509
v  0.0884 1.7500 0.0884
v  0.1768 1.8750 0.1768
v  -0.0000 1.7866 0.2134
v  -0.0000 1.7500 0.1250
v  -0.0000 1.8750 0.2500
v  -0.1509 1.7866 0.1509
v  -0.0884 1.7500 0.0884
v  -0.1768 1.8750 0.1768
v  -0.2134 1.7866 -0.0000
v  -0.1250 1.7500 -0.0000
v  -0.2500 1.8750 -0.0000
v  -0.1509 1.7866 -0.1509
v  -0.0884 1.7500 -0.0884
v  -0.1768 1.8750 -0.1768
# 24 vertices

vn 0.0000 -0.9239 -0.3827
vn -0.0000 -0.6630 -0.7486
vn 0.5294 -0.6630 -0.5294
vn 0.2706 -0.9239 -0.2706
vn 0.0000 -0.3827 -0.9239
vn 0.6533 -0.3827 -0.6533
vn 0.7486 -0.6630 -0.0000
vn 0.3827 -0.9239 0.0000
vn 0.9239 -0.3827 -0.0000
vn 0.5294 -0.6630 0.5294
vn 0.2706 -0.9239 0.2706
vn 0.6533 -0.3827 0.6533
vn 0.0000 -0.6630 0.7486
vn -0.0000 -0.9239 0.3827
vn -0.0000 -0.3827 0.9239
vn -0.5294 -0.6630 0.5294
vn -0.2706 -0.9239 0.2706
vn -0.6533 -0.3827 0.6533
vn -0.7486 -0.6630 -0.0000
vn -0.3827 -0.9239 -0.0000
vn -0.9239 -0.3827 -0.0000
vn -0.5294 -0.6630 -0.5294
vn -0.2706 -0.9239 -0.2706
vn -0.6533 -0.3827 -0.6533
# 24 vertex normals

vt 0.5000 0.7498 0.0005
vt 0.5000 0.9264 0.2931
vt 0.8015 0.8015 0.2931
vt 0.6766 0.6766 0.0005
vt 0.5000 0.9995 0.9995
vt 0.8532 0.8532 0.9995
vt 0.9264 0.5000 0.2931
vt 0.7498 0.5000 0.0005
vt 0.9995 0.5000 0.9995
vt 0.8015 0.1985 0.2931
vt 0.6766 0.3234 0.0005
vt 0.8532 0.1468 0.9995
vt 0.5000 0.0736 0.2931
vt 0.5000 0.2502 0.0005
vt 0.5000 0.0005 0.9995
vt 0.1985 0.1985 0.2931
vt 0.3234 0.3234 0.0005
vt 0.1468 0.1468 0.9995
vt 0.0736 0.5000 0.2931
vt 0.2502 0.5000 0.0005
vt 0.0005 0.5000 0.9995
vt 0.1985 0.8015 0.2931
vt 0.3234 0.6766 0.0005
vt 0.1468 0.8532 0.9995
# 24 texture coords

g Torus002
usemtl column_base
f 29/27/17 30/28/18 31/29/19 
f 31/29/19 32/30/20 29/27/17 
f 30/28/18 33/31/21 34/32/22 
f 34/32/22 31/29/19 30/28/18 
f 32/30/20 31/29/19 35/33/23 
f 35/33/23 36/34/24 32/30/20 
f 31/29/19 34/32/22 37/35/25 
f 37/35/25 35/33/23 31/29/19 
f 36/34/24 35/33/23 38/36/26 
f 38/36/26 39/37/27 36/34/24 
f 35/33/23 37/35/25 40/38/28 
f 40/38/28 38/36/26 35/33/23 
f 39/37/27 38/36/26 41/39/29 
f 41/39/29 42/40/30 39/37/27 
f 38/36/26 40/38/28 43/41/31 
f 43/41/31 41/39/29 38/36/26 
f 42/40/30 41/39/29 44/42/32 
f 44/42/32 45/43/33 42/40/30 
f 41/39/29 43/41/31 46/44/34 
f 46/44/34 44/42/32 41/39/29 
f 45/43/33 44/42/32 47/45/35 
f 47/45/35 48/46/36 45/43/33 
f 44/42/32 46/44/34 49/47/37 
f 49/47/37 47/45/35 44/42/32 
f 48/46/36 47/45/35 50/48/38 
f 50/48/38 51/49/39 48/46/36 
f 47/45/35 49/47/37 52/50/40 
f 52/50/40 50/48/38 47/45/35 
f 51/49/39 50/48/38 30/28/18 
f 30/28/18 29/27/17 51/49/39 
f 50/48/38 52/50/40 33/31/21 
f 33/31/21 30/28/18 50/48/38 
# 32 faces

#
# object Box005
#

v  -0.2500 1.8750 0.2500
v  -0.2500 1.8750 -0.2500
v  0.2500 1.8750 -0.2500
v  0.2500 1.8750 0.2500
v  0.2500 1.9370 0.2500
v  -0.2500 1.9370 0.2500
v  0.2500 1.9370 -0.2500
v  -0.2500 1.9370 -0.2500
# 8 vertices

vn 0.0000 -1.0000 -0.0000
vn 0.0000 0.0000 1.0000
vn 1.0000 0.0000 -0.0000
vn 0.0000 0.0000 -1.0000
vn -1.0000 0.0000 -0.0000
# 5 vertex normals

vt 1.0000 0.0000 0.0000
vt 1.0000 1.0000 0.0000
vt 0.0000 1.0000 0.0000
vt 0.0000 0.0000 0.0000
vt 1.0000 0.4960 0.0000
vt 0.0000 0.4960 0.0000
# 6 texture coords

g Box005
usemtl column_base
f 53/51/41 54/52/41 55/53/41 
f 55/53/41 56/54/41 53/51/41 
f 56/51/42 57/55/42 58/56/42 
f 58/56/42 53/54/42 56/51/42 
f 57/56/43 56/54/43 55/51/43 
f 55/51/43 59/55/43 57/56/43 
f 59/56/44 55/54/44 54/51/44 
f 54/51/44 60/55/44 59/56/44 
f 58/55/45 60/56/45 54/54/45 
f 54/54/45 53/51/45 58/55/45 
# 10 faces

#
# object Torus003
#

v  -0.0000 0.2500 -0.1250
v  -0.0000 0.2134 -0.2134
v  0.1509 0.2134 -0.1509
v  0.0884 0.2500 -0.0884
v  0.0000 0.1250 -0.2500
v  0.1768 0.1250 -0.1768
v  0.2134 0.2134 -0.0000
v  0.1250 0.2500 -0.0000
v  0.2500 0.1250 -0.0000
v  0.1509 0.2134 0.1509
v  0.0884 0.2500 0.0884
v  0.1768 0.1250 0.1768
v  -0.0000 0.2134 0.2134
v  -0.0000 0.2500 0.1250
v  -0.0000 0.1250 0.2500
v  -0.1509 0.2134 0.1509
v  -0.0884 0.2500 0.0884
v  -0.1768 0.1250 0.1768
v  -0.2134 0.2134 -0.0000
v  -0.1250 0.2500 -0.0000
v  -0.2500 0.1250 -0.0000
v  -0.1509 0.2134 -0.1509
v  -0.0884 0.2500 -0.0884
v  -0.1768 0.1250 -0.1768
# 24 vertices

vn 0.0000 0.9239 -0.3827
vn -0.0000 0.6630 -0.7486
vn 0.5294 0.6630 -0.5294
vn 0.2706 0.9239 -0.2706
vn 0.0000 0.3827 -0.9239
vn 0.6533 0.3827 -0.6533
vn 0.7486 0.6630 -0.0000
vn 0.3827 0.9239 0.0000
vn 0.9239 0.3827 -0.0000
vn 0.5294 0.6630 0.5294
vn 0.2706 0.9239 0.2706
vn 0.6533 0.3827 0.6533
vn 0.0000 0.6630 0.7486
vn -0.0000 0.9239 0.3827
vn -0.0000 0.3827 0.9239
vn -0.5294 0.6630 0.5294
vn -0.2706 0.9239 0.2706
vn -0.6533 0.3827 0.6533
vn -0.7486 0.6630 -0.0000
vn -0.3827 0.9239 -0.0000
vn -0.9239 0.3827 -0.0000
vn -0.5294 0.6630 -0.5294
vn -0.2706 0.9239 -0.2706
vn -0.6533 0.3827 -0.6533
# 24 vertex normals

vt 0.5000 0.7498 0.0005
vt 0.5000 0.9264 0.2931
vt 0.8015 0.8015 0.2931
vt 0.6766 0.6766 0.0005
vt 0.5000 0.9995 0.9995
vt 0.8532 0.8532 0.9995
vt 0.9264 0.5000 0.2931
vt 0.7498 0.5000 0.0005
vt 0.9995 0.5000 0.9995
vt 0.8015 0.1985 0.2931
vt 0.6766 0.3234 0.0005
vt 0.8532 0.1468 0.9995
vt 0.5000 0.0736 0.2931
vt 0.5000 0.2502 0.0005
vt 0.5000 0.0005 0.9995
vt 0.1985 0.1985 0.2931
vt 0.3234 0.3234 0.0005
vt 0.1468 0.1468 0.9995
vt 0.0736 0.5000 0.2931
vt 0.2502 0.5000 0.0005
vt 0.0005 0.5000 0.9995
vt 0.1985 0.8015 0.2931
vt 0.3234 0.6766 0.0005
vt 0.1468 0.8532 0.9995
# 24 texture coords

g Torus003
usemtl column_base
f 63/59/48 62/58/47 61/57/46 
f 61/57/46 64/60/49 63/59/48 
f 66/62/51 65/61/50 62/58/47 
f 62/58/47 63/59/48 66/62/51 
f 67/63/52 63/59/48 64/60/49 
f 64/60/49 68/64/53 67/63/52 
f 69/65/54 66/62/51 63/59/48 
f 63/59/48 67/63/52 69/65/54 
f 70/66/55 67/63/52 68/64/53 
f 68/64/53 71/67/56 70/66/55 
f 72/68/57 69/65/54 67/63/52 
f 67/63/52 70/66/55 72/68/57 
f 73/69/58 70/66/55 71/67/56 
f 71/67/56 74/70/59 73/69/58 
f 75/71/60 72/68/57 70/66/55 
f 70/66/55 73/69/58 75/71/60 
f 76/72/61 73/69/58 74/70/59 
f 74/70/59 77/73/62 76/72/61 
f 78/74/63 75/71/60 73/69/58 
f 73/69/58 76/72/61 78/74/63 
f 79/75/64 76/72/61 77/73/62 
f 77/73/62 80/76/65 79/75/64 
f 81/77/66 78/74/63 76/72/61 
f 76/72/61 79/75/64 81/77/66 
f 82/78/67 79/75/64 80/76/65 
f 80/76/65 83/79/68 82/78/67 
f 84/80/69 81/77/66 79/75/64 
f 79/75/64 82/78/67 84/80/69 
f 62/58/47 82/78/67 83/79/68 
f 83/79/68 61/57/46 62/58/47 
f 65/61/50 84/80/69 82/78/67 
f 82/78/67 62/58/47 65/61/50 
# 32 faces

#
# object Box006
#

v  -0.2500 0.1244 0.2500
v  -0.2500 0.1244 -0.2500
v  0.2500 0.1244 -0.2500
v  0.2500 0.1244 0.2500
v  0.2500 0.0624 0.2500
v  -0.2500 0.0624 0.2500
v  0.2500 0.0624 -0.2500
v  -0.2500 0.0624 -0.2500
# 8 vertices

vn 0.0000 1.0000 -0.0000
vn 0.0000 0.0000 1.0000
vn 1.0000 0.0000 -0.0000
vn 0.0000 0.0000 -1.0000
vn -1.0000 0.0000 -0.0000
# 5 vertex normals

vt 1.0000 0.0000 0.0000
vt 1.0000 1.0000 0.0000
vt 0.0000 1.0000 0.0000
vt 0.0000 0.0000 0.0000
vt 1.0000 0.4960 0.0000
vt 0.0000 0.4960 0.0000
# 6 texture coords

g Box006
usemtl column_base
f 87/83/70 86/82/70 85/81/70 
f 85/81/70 88/84/70 87/83/70 
f 90/86/71 89/85/71 88/81/71 
f 88/81/71 85/84/71 90/86/71 
f 87/81/72 88/84/72 89/86/72 
f 89/86/72 91/85/72 87/81/72 
f 86/81/73 87/84/73 91/86/73 
f 91/86/73 92/85/73 86/81/73 
f 86/84/74 92/86/74 90/85/74 
f 90/85/74 85/81/74 86/84/74 
# 10 faces

#
# object Box007
#

v  -0.3125 0.0620 0.3125
v  -0.3125 0.0620 -0.3125
v  0.3125 0.0620 -0.3125
v  0.3125 0.0620 0.3125
v  0.3125 -0.0005 0.3125
v  -0.3125 -0.0005 0.3125
v  0.3125 -0.0005 -0.3125
v  -0.3125 -0.0005 -0.3125
# 8 vertices

vn 0.0000 1.0000 -0.0000
vn 0.0000 0.0000 1.0000
vn 1.0000 0.0000 -0.0000
vn 0.0000 0.0000 -1.0000
vn -1.0000 0.0000 -0.0000
# 5 vertex normals

vt 1.0000 0.0000 0.0000
vt 1.0000 1.0000 0.0000
vt 0.0000 1.0000 0.0000
vt 0.0000 0.0000 0.0000
# 4 texture coords

g Box007
usemtl column_base
f 95/89/75 94/88/75 93/87/75 
f 93/87/75 96/90/75 95/89/75 
f 97/88/76 96/87/76 93/90/76 
f 93/90/76 98/89/76 97/88/76 
f 99/88/77 95/87/77 96/90/77 
f 96/90/77 97/89/77 99/88/77 
f 100/88/78 94/87/78 95/90/78 
f 95/90/78 99/89/78 100/88/78 
f 98/88/79 93/87/79 94/90/79 
f 94/90/79 100/89/79 98/88/79 
# 10 faces

