# 3ds Max Wavefront OBJ Exporter v0.97b - (c)2007 guruware
# File Created: 18.01.2015 10:56:30

mtllib wall_round_out.mtl

#
# object Plane008
#

v  -0.5000 2.0000 -0.5000
v  -0.5000 0.0000 -0.5000
v  -0.2500 2.0000 -0.2500
v  -0.2500 0.0000 -0.2500
v  0.2500 2.0000 -0.2500
v  0.2500 0.0000 -0.2500
v  0.5000 2.0000 -0.5000
v  0.5000 0.0000 -0.5000
# 8 vertices

vn -0.7071 -0.0000 0.7071
vn -0.3827 -0.0000 0.9239
vn 0.3827 -0.0000 0.9239
vn 0.7071 -0.0000 0.7071
# 4 vertex normals

vt 0.0000 1.0000 0.0000
vt 0.0000 0.0000 0.0000
vt 0.3333 1.0000 0.0000
vt 0.3333 0.0000 0.0000
vt 0.6667 1.0000 0.0000
vt 0.6667 0.0000 0.0000
vt 1.0000 1.0000 0.0000
vt 1.0000 0.0000 0.0000
# 8 texture coords

g Plane008
usemtl wall_0
f 1/1/1 2/2/1 3/3/2 
f 4/4/2 3/3/2 2/2/1 
f 3/3/2 4/4/2 5/5/3 
f 6/6/3 5/5/3 4/4/2 
f 5/5/3 6/6/3 7/7/4 
f 8/8/4 7/7/4 6/6/3 
# 6 faces

