# 3ds Max Wavefront OBJ Exporter v0.97b - (c)2007 guruware
# File Created: 18.01.2015 11:10:29

mtllib wall_inset.mtl

#
# object Plane008
#

v  -0.5000 2.0000 -0.5000
v  -0.5000 0.0000 -0.5000
v  -0.5000 2.0000 -0.7500
v  -0.5000 -0.0000 -0.7500
v  0.5000 2.0000 -0.7500
v  0.5000 -0.0000 -0.7500
v  0.5000 2.0000 -0.5000
v  0.5000 0.0000 -0.5000
# 8 vertices

vn 1.0000 0.0000 -0.0000
vn 0.7071 -0.0000 0.7071
vn -0.7071 -0.0000 0.7071
vn -1.0000 0.0000 -0.0000
# 4 vertex normals

vt 0.0000 1.0000 0.0000
vt 0.0000 0.0000 0.0000
vt 0.2500 1.0000 0.0000
vt 0.2500 0.0000 0.0000
vt 1.0000 1.0000 0.0000
vt 1.0000 0.0000 0.0000
vt 0.7500 1.0000 0.0000
vt 0.7500 0.0000 0.0000
# 8 texture coords

g Plane008
usemtl wall_0
f 1/1/1 2/2/1 3/3/2 
f 4/4/2 3/3/2 2/2/1 
usemtl wall_special
f 3/1/2 4/2/2 5/5/3 
f 6/6/3 5/5/3 4/2/2 
usemtl wall_0
f 5/7/3 6/8/3 7/5/4 
f 8/6/4 7/5/4 6/8/3 
# 6 faces

#
# object Plane009
#

v  -0.5000 0.0000 -0.7500
v  -0.5000 0.0000 -0.5000
v  0.5000 0.0000 -0.7500
v  0.5000 0.0000 -0.5000
# 4 vertices

vn 0.0000 1.0000 -0.0000
# 1 vertex normals

vt 0.0005 0.2499 0.5000
vt 0.0005 0.0001 0.5000
vt 0.9995 0.2499 0.5000
vt 0.9995 0.0001 0.5000
# 4 texture coords

g Plane009
usemtl floor_0
f 9/9/5 10/10/5 11/11/5 
f 12/12/5 11/11/5 10/10/5 
# 2 faces

#
# object Plane010
#

v  0.5000 2.0000 -0.7500
v  0.5000 2.0000 -0.5000
v  -0.5000 2.0000 -0.7500
v  -0.5000 2.0000 -0.5000
# 4 vertices

vn 0.0000 -1.0000 -0.0000
# 1 vertex normals

vt 0.0005 0.2499 0.5000
vt 0.0005 0.0001 0.5000
vt 0.9995 0.2499 0.5000
vt 0.9995 0.0001 0.5000
# 4 texture coords

g Plane010
usemtl ceiling_0
f 13/13/6 14/14/6 15/15/6 
f 16/16/6 15/15/6 14/14/6 
# 2 faces

